<?xml version="1.0" standalone="no"?>
<!DOCTYPE svg PUBLIC "-//W3C//DTD SVG 20010904//EN"
 "http://www.w3.org/TR/2001/REC-SVG-20010904/DTD/svg10.dtd">
<svg version="1.0" xmlns="http://www.w3.org/2000/svg"
 width="612.000000pt" height="612.000000pt" viewBox="0 0 612.000000 612.000000"
 preserveAspectRatio="xMidYMid meet">
<metadata>
Created by potrace 1.14, written by Peter Selinger 2001-2017
</metadata>
<g transform="translate(0.000000,612.000000) scale(0.100000,-0.100000)"
fill="#000000" stroke="none">
<path d="M0 3060 l0 -3060 3060 0 3060 0 0 3060 0 3060 -3060 0 -3060 0 0
-3060z m5100 1520 c24 -24 24 -30 5 -103 -81 -310 -329 -487 -627 -447 -112
15 -152 35 -156 78 -6 66 80 246 156 326 101 106 278 162 525 165 65 1 80 -2
97 -19z m-2170 -250 l195 -6 -165 -4 c-147 -3 -156 -4 -80 -10 84 -6 84 -6 25
-10 l-60 -3 60 -7 c33 -4 46 -7 29 -8 -16 -1 -35 -7 -42 -14 -9 -9 -12 -9 -12
0 0 7 -4 12 -10 12 -5 0 -10 -17 -10 -37 -1 -30 -8 -44 -30 -63 -17 -13 -30
-32 -30 -42 0 -10 -4 -18 -10 -18 -5 0 -10 -11 -10 -24 0 -40 -11 -56 -36 -56
-21 0 -24 -5 -24 -34 0 -29 -9 -44 -50 -84 -42 -41 -50 -55 -50 -86 0 -33 -2
-36 -30 -36 -28 0 -30 -2 -30 -39 0 -22 -4 -41 -8 -43 -5 -1 -12 -20 -15 -40
-6 -37 -5 -38 26 -40 18 -1 -13 -5 -68 -8 l-100 -6 85 -3 c82 -4 83 -4 35 -11
-27 -5 -116 -9 -196 -9 -119 -1 -156 3 -201 18 -79 27 -131 63 -172 118 -20
26 -39 53 -44 58 -18 22 -33 83 -38 155 -5 62 -2 85 16 132 44 118 109 185
225 233 59 24 64 25 345 23 157 0 373 -4 480 -8z m1115 -24 c125 -62 204 -177
213 -311 9 -148 -58 -277 -184 -351 -84 -49 -123 -54 -480 -54 -342 0 -440 -8
-559 -47 -123 -39 -233 -116 -305 -213 -22 -29 -40 -54 -40 -54 0 -1 -11 -32
-25 -71 l-26 -70 3 243 c2 134 6 246 10 248 4 3 5 10 2 17 -10 28 101 289 135
317 4 3 22 25 41 50 52 66 127 137 176 166 25 15 41 31 37 36 -3 6 -1 8 4 5 6
-4 35 7 66 24 60 32 179 76 242 89 22 5 173 8 335 7 l295 -2 60 -29z m-1141
-120 c-10 -8 -21 -12 -24 -10 -5 6 21 24 34 24 6 0 1 -6 -10 -14z m53 -22 c-3
-3 -12 -4 -19 -1 -8 3 -5 6 6 6 11 1 17 -2 13 -5z m-47 -34 c0 -5 -4 -10 -10
-10 -5 0 -10 5 -10 10 0 6 5 10 10 10 6 0 10 -4 10 -10z m-88 -39 c-19 -34
-27 -33 -18 4 4 14 13 25 21 25 12 0 11 -5 -3 -29z m53 0 c3 -5 -3 -12 -14
-16 -10 -3 -21 -15 -24 -25 -3 -11 -11 -20 -19 -19 -10 0 -10 2 0 6 6 2 9 9 6
14 -6 11 23 49 37 49 4 0 10 -4 14 -9z m1637 -151 c92 -34 158 -117 158 -198
0 -62 -56 -122 -112 -122 -73 1 -172 84 -219 184 -42 90 -46 119 -19 146 20
20 29 22 80 17 32 -4 82 -16 112 -27z m-1771 -22 c-11 -18 -21 -26 -21 -18 0
19 30 63 37 56 3 -3 -4 -20 -16 -38z m-81 -50 c0 -9 3 -9 12 0 7 7 18 12 25
12 9 0 6 -12 -11 -37 -17 -25 -22 -39 -14 -44 7 -4 3 -11 -11 -18 -20 -11 -21
-10 -21 44 0 30 5 55 10 55 6 0 10 -5 10 -12z m-27 -235 c-7 -2 -19 -2 -25 0
-7 3 -2 5 12 5 14 0 19 -2 13 -5z"/>
<path d="M2800 4190 c0 -5 5 -10 10 -10 6 0 10 5 10 10 0 6 -4 10 -10 10 -5 0
-10 -4 -10 -10z"/>
<path d="M2643 3945 c-3 -9 -3 -19 1 -22 7 -7 36 16 36 28 0 15 -30 10 -37 -6z"/>
</g>
</svg>
